<svg width="271" height="52" viewBox="0 0 271 52" fill="none" xmlns="http://www.w3.org/2000/svg">
<g clip-path="url(#clip0_2054_134)">
<g clip-path="url(#clip1_2054_134)">
<path d="M121.502 41.5265C121.107 41.5265 120.755 41.4509 120.443 41.2978C120.131 41.1448 119.818 40.9124 119.503 40.597C119.266 40.3609 119.049 40.1894 118.848 40.0824C118.649 39.9754 118.405 39.9219 118.117 39.9219C117.621 39.9219 117.191 40.1635 116.826 40.6486C116.753 40.7501 116.66 40.8146 116.548 40.8423C116.509 40.8589 116.468 40.8681 116.43 40.8681C116.356 40.8681 116.286 40.8478 116.219 40.8091C116.113 40.7537 116.044 40.6689 116.017 40.5564C116.006 40.5177 116 40.4808 116 40.4476C116 40.3738 116.022 40.3037 116.068 40.2373C116.62 39.4498 117.306 39.0551 118.128 39.0551C118.521 39.0551 118.875 39.1325 119.187 39.2874C119.499 39.4424 119.812 39.6766 120.128 39.992C120.364 40.2281 120.581 40.3996 120.783 40.5066C120.982 40.6136 121.225 40.6671 121.513 40.6671C122.007 40.6671 122.439 40.4217 122.804 39.933C122.878 39.8371 122.97 39.7725 123.082 39.7393C123.121 39.7283 123.162 39.7227 123.201 39.7227C123.274 39.7227 123.344 39.7393 123.411 39.7725C123.518 39.8352 123.586 39.9219 123.614 40.0344C123.625 40.0676 123.63 40.1045 123.63 40.1432C123.63 40.217 123.608 40.2871 123.562 40.3535C123.011 41.1355 122.324 41.5265 121.502 41.5265Z" fill="#231815"/>
<path d="M131.362 38.2177C131.362 38.2564 131.383 38.2767 131.421 38.2767H132.594C132.696 38.2767 132.814 38.273 132.949 38.2675C132.96 38.262 132.971 38.2583 132.982 38.2583C133.089 38.2583 133.185 38.2952 133.269 38.3671C133.36 38.4519 133.404 38.5534 133.404 38.6714C133.404 38.7895 133.36 38.9001 133.269 38.9831C133.179 39.068 133.076 39.1104 132.958 39.1104H131.447C131.401 39.1104 131.379 39.1307 131.379 39.1694C131.418 41.1503 131.44 42.4617 131.447 43.1035C131.447 43.3562 131.373 43.5498 131.228 43.6826C131.082 43.8154 130.864 43.8818 130.578 43.8818C130.293 43.8818 129.974 43.8726 129.592 43.856C129.463 43.8449 129.352 43.797 129.262 43.7122C129.16 43.6107 129.11 43.4908 129.11 43.3488C129.11 43.2474 129.147 43.1625 129.219 43.0961C129.293 43.0223 129.376 42.9873 129.472 42.9873C129.488 42.9873 129.503 42.991 129.514 42.9965C129.796 43.0187 130.044 43.0297 130.258 43.0297C130.37 43.0297 130.451 43.0039 130.503 42.9504C130.553 42.8969 130.578 42.8102 130.578 42.6922C130.578 41.9046 130.569 40.9954 130.553 39.9662C130.553 39.9551 130.547 39.9477 130.536 39.9459C130.525 39.9441 130.516 39.9459 130.51 39.9588C130.156 40.431 129.688 40.9234 129.105 41.4362C128.522 41.9489 127.915 42.3934 127.286 42.7697C127.196 42.8195 127.104 42.8453 127.008 42.8453C126.975 42.8453 126.94 42.8434 126.906 42.8361C126.772 42.8139 126.659 42.7494 126.569 42.6424C126.506 42.5742 126.477 42.4985 126.477 42.4137C126.477 42.386 126.478 42.3602 126.486 42.3381C126.508 42.22 126.571 42.1334 126.672 42.0762C127.399 41.6815 128.068 41.2204 128.686 40.691C129.302 40.1617 129.78 39.6526 130.117 39.1639C130.128 39.1528 130.132 39.1417 130.127 39.1307C130.121 39.1196 130.11 39.1141 130.093 39.1141H127.08C126.962 39.1141 126.86 39.0753 126.775 38.996C126.685 38.9057 126.641 38.7987 126.641 38.6751C126.641 38.5515 126.685 38.4556 126.775 38.3708C126.86 38.297 126.956 38.262 127.063 38.262C127.074 38.262 127.085 38.2657 127.096 38.2712C127.242 38.2767 127.378 38.2804 127.502 38.2804H130.457C130.501 38.2804 130.521 38.2601 130.516 38.2214C130.51 37.9521 130.505 37.7234 130.499 37.5371L130.473 37.1904C130.473 37.0779 130.512 36.9764 130.591 36.8861C130.676 36.7901 130.783 36.7422 130.912 36.7422C131.041 36.7422 131.148 36.7901 131.233 36.8861C131.318 36.982 131.361 37.0908 131.361 37.2144V37.5353L131.37 38.2195L131.362 38.2177Z" fill="#231815"/>
<path d="M137.903 43.7122C137.854 43.7233 137.802 43.7288 137.752 43.7288C137.662 43.7288 137.571 43.7085 137.483 43.6698C137.343 43.6126 137.232 43.5204 137.153 43.3913L137.11 43.3415C137.077 43.2862 137.059 43.2271 137.059 43.1644C137.059 43.1202 137.068 43.0741 137.084 43.0298C137.134 42.9228 137.217 42.8583 137.33 42.8361C138.399 42.6222 139.37 42.2478 140.242 41.7129C140.821 41.3532 141.35 40.9235 141.828 40.4255C142.306 39.9275 142.697 39.4166 143.001 38.8928C143.057 38.7969 143.14 38.749 143.247 38.749C143.354 38.749 143.433 38.7932 143.483 38.8836L143.525 38.9592C143.599 39.0883 143.634 39.2285 143.634 39.3816C143.634 39.5457 143.591 39.6914 143.507 39.8205C143.175 40.3333 142.771 40.8239 142.295 41.2942C141.819 41.7645 141.297 42.174 140.729 42.5226C139.818 43.0851 138.875 43.4817 137.901 43.7122H137.903ZM137.474 38.0831C137.378 38.0094 137.324 37.9116 137.313 37.788C137.308 37.777 137.304 37.7622 137.304 37.7456C137.304 37.6442 137.341 37.5538 137.415 37.4763C137.505 37.3804 137.617 37.3251 137.752 37.3066H137.811C137.918 37.3066 138.016 37.338 138.106 37.3989C138.641 37.7936 139.135 38.1956 139.593 38.6051C139.694 38.6955 139.744 38.8098 139.744 38.9518C139.744 39.0939 139.696 39.2027 139.6 39.2986C139.51 39.3945 139.397 39.4424 139.263 39.4424H139.253C139.119 39.4424 139.003 39.3982 138.907 39.3078C138.423 38.8578 137.944 38.4502 137.472 38.0831H137.474Z" fill="#231815"/>
<path d="M152.354 38.2841C152.392 38.2786 152.433 38.2749 152.472 38.2749C152.658 38.2749 152.826 38.3136 152.979 38.393C153.069 38.4317 153.136 38.4962 153.182 38.5866C153.22 38.6604 153.241 38.736 153.241 38.8153V38.8651C153.235 38.9039 153.231 38.9407 153.231 38.9739C153.215 39.4018 153.193 39.8408 153.169 40.2908C153.143 40.7409 153.089 41.2684 153.008 41.8733C152.927 42.4783 152.828 42.9099 152.709 43.1681C152.619 43.371 152.494 43.5204 152.333 43.6163C152.173 43.7122 151.962 43.7601 151.704 43.7601C151.446 43.7601 151.138 43.7491 150.751 43.7269C150.622 43.7159 150.509 43.6642 150.413 43.5757C150.317 43.4853 150.262 43.3765 150.244 43.2474V43.1976C150.244 43.1017 150.279 43.0187 150.349 42.9486C150.419 42.8785 150.505 42.8435 150.607 42.8435H150.649C150.959 42.8767 151.227 42.8933 151.452 42.8933C151.581 42.8933 151.684 42.8711 151.76 42.825C151.835 42.7808 151.896 42.7033 151.94 42.5963C152.069 42.3326 152.169 41.8457 152.239 41.1356C152.309 40.4273 152.344 39.7707 152.344 39.1694C152.344 39.1307 152.324 39.1104 152.285 39.1104H150.192C150.153 39.1104 150.129 39.1307 150.124 39.1694C149.978 40.2171 149.723 41.0858 149.36 41.7774C148.997 42.4691 148.501 43.0685 147.87 43.5757C147.757 43.6661 147.63 43.7103 147.49 43.7103H147.473C147.328 43.7048 147.197 43.6569 147.086 43.5665L147.06 43.5407C146.975 43.4724 146.933 43.3857 146.933 43.2788C146.933 43.1496 146.988 43.0445 147.103 42.9671C147.311 42.8213 147.499 42.6664 147.669 42.5023C148.091 42.1076 148.43 41.6409 148.691 41.1005C148.949 40.5601 149.131 39.9164 149.238 39.1676C149.249 39.1289 149.233 39.1086 149.189 39.1086H147.94C147.731 39.1086 147.529 39.1123 147.333 39.1178H147.316C147.204 39.1178 147.106 39.0791 147.021 38.9998C146.931 38.9149 146.887 38.8135 146.887 38.6917C146.887 38.57 146.931 38.4686 147.021 38.3837C147.101 38.31 147.197 38.2749 147.309 38.2749H147.335C147.565 38.286 147.768 38.2915 147.942 38.2915H149.268C149.312 38.2915 149.336 38.2712 149.336 38.2325C149.353 37.9909 149.362 37.7382 149.362 37.4726L149.353 37.1849C149.353 37.0668 149.391 36.9599 149.471 36.864C149.556 36.768 149.664 36.7201 149.801 36.7201H149.81C149.945 36.7201 150.061 36.768 150.157 36.864C150.242 36.9599 150.284 37.0668 150.284 37.1849L150.267 37.4468C150.262 37.6552 150.251 37.9171 150.234 38.2325C150.229 38.2712 150.249 38.2915 150.293 38.2915H152.092C152.182 38.2915 152.272 38.2878 152.361 38.2823L152.354 38.2841Z" fill="#231815"/>
<path d="M157.05 39.8205C156.943 39.7578 156.875 39.6692 156.847 39.5512C156.842 39.518 156.84 39.483 156.84 39.4498C156.84 39.3704 156.862 39.2985 156.908 39.2303C156.982 39.1233 157.078 39.0551 157.196 39.0274C157.235 39.0163 157.275 39.0108 157.314 39.0108C157.393 39.0108 157.469 39.0329 157.543 39.079C157.943 39.3151 158.328 39.5512 158.699 39.7873C158.806 39.8555 158.874 39.9533 158.902 40.0824C158.907 40.11 158.911 40.1414 158.911 40.1746C158.911 40.265 158.885 40.3498 158.835 40.4273C158.767 40.5287 158.673 40.5933 158.548 40.6209C158.515 40.6265 158.483 40.6302 158.456 40.6302C158.365 40.6302 158.284 40.6025 158.21 40.5453C157.827 40.2926 157.441 40.051 157.054 39.8186L157.05 39.8205ZM158.029 43.8394C157.974 43.8505 157.921 43.856 157.869 43.856C157.779 43.856 157.694 43.8394 157.616 43.8062C157.476 43.7435 157.369 43.6494 157.295 43.5185L157.279 43.4927C157.251 43.4373 157.236 43.3783 157.236 43.3156C157.236 43.2658 157.247 43.2142 157.27 43.1644C157.319 43.0574 157.404 42.9891 157.522 42.9615C158.433 42.7586 159.245 42.4635 159.953 42.0743C160.584 41.7147 161.159 41.2941 161.683 40.8165C162.207 40.3388 162.646 39.8297 163 39.2893C163.063 39.1989 163.15 39.1547 163.262 39.1547C163.375 39.1547 163.459 39.2026 163.515 39.2985L163.541 39.3483C163.614 39.4719 163.649 39.6047 163.649 39.7449C163.649 39.9145 163.601 40.0621 163.505 40.193C162.701 41.2517 161.668 42.1463 160.407 42.8766C159.715 43.2824 158.922 43.6033 158.026 43.8394H158.029ZM158.36 37.8802C158.258 37.8119 158.194 37.7197 158.166 37.6017C158.155 37.5685 158.149 37.5371 158.149 37.5095C158.149 37.4246 158.175 37.349 158.225 37.2807C158.293 37.1738 158.387 37.1055 158.513 37.0779C158.551 37.0668 158.588 37.0613 158.622 37.0613C158.701 37.0613 158.778 37.0834 158.858 37.1295C159.206 37.3435 159.592 37.5906 160.014 37.8728C160.121 37.9466 160.184 38.0443 160.2 38.1679C160.206 38.1956 160.21 38.2251 160.21 38.2527C160.21 38.3431 160.184 38.428 160.134 38.5054C160.06 38.6069 159.962 38.6696 159.839 38.6917C159.811 38.6972 159.783 38.7009 159.754 38.7009C159.664 38.7009 159.579 38.6733 159.501 38.6161C159.118 38.3579 158.74 38.1126 158.361 37.882L158.36 37.8802ZM161.777 37.5593C161.733 37.491 161.72 37.4172 161.744 37.3361C161.766 37.2549 161.818 37.1996 161.895 37.1719C161.98 37.1332 162.065 37.1277 162.154 37.1553C162.24 37.183 162.31 37.2365 162.36 37.3158C162.535 37.5925 162.688 37.8507 162.825 38.0923C162.869 38.1716 162.877 38.2527 162.845 38.3376C162.814 38.4224 162.76 38.4814 162.681 38.5146C162.596 38.5534 162.511 38.5589 162.423 38.5276C162.336 38.4962 162.272 38.439 162.233 38.3542C162.082 38.0554 161.929 37.7916 161.777 37.5611V37.5593ZM162.934 37.1461C162.889 37.0779 162.878 37.0041 162.901 36.9229C162.923 36.8418 162.971 36.7865 163.044 36.7588C163.094 36.7367 163.148 36.7256 163.205 36.7256C163.238 36.7256 163.275 36.7311 163.314 36.7422C163.404 36.7643 163.476 36.816 163.533 36.8934C163.684 37.1184 163.843 37.3711 164.005 37.6533C164.027 37.7031 164.039 37.7511 164.039 37.7972C164.039 37.8304 164.033 37.8654 164.022 37.8986C163.994 37.9835 163.941 38.0425 163.861 38.0757C163.777 38.1144 163.692 38.1199 163.603 38.0886C163.517 38.0572 163.45 38.0001 163.404 37.9152C163.264 37.6515 163.105 37.3951 162.932 37.148L162.934 37.1461Z" fill="#231815"/>
<path d="M168.419 39.518C168.38 39.518 168.36 39.5383 168.36 39.577V42.5816C168.36 42.6258 168.38 42.6443 168.419 42.6314C168.666 42.5871 169.007 42.5133 169.44 42.4119C169.665 42.3676 169.857 42.327 170.014 42.2938C170.042 42.2883 170.067 42.2846 170.09 42.2846C170.163 42.2846 170.23 42.3067 170.293 42.3528C170.377 42.4156 170.422 42.4967 170.427 42.5982C170.433 42.6148 170.435 42.6314 170.435 42.648C170.435 42.7383 170.407 42.8232 170.35 42.9006C170.281 42.991 170.195 43.05 170.088 43.0777C169.492 43.2179 168.487 43.4521 167.074 43.7786C167.035 43.7841 166.998 43.7878 166.963 43.7878C166.884 43.7878 166.808 43.7675 166.735 43.7288C166.633 43.6661 166.563 43.5775 166.524 43.4595C166.513 43.4208 166.508 43.3802 166.508 43.3414C166.508 43.2732 166.528 43.2086 166.567 43.1478C166.628 43.0463 166.716 42.9855 166.829 42.9615C166.991 42.9283 167.205 42.8822 167.471 42.8269C167.509 42.8213 167.53 42.7955 167.53 42.7512V36.6131C167.53 36.5006 167.57 36.4028 167.651 36.3217C167.732 36.2405 167.83 36.2 167.943 36.2C168.055 36.2 168.153 36.2405 168.234 36.3217C168.315 36.4028 168.356 36.5006 168.356 36.6131V38.6641C168.356 38.7083 168.376 38.7323 168.415 38.7323H169.8C169.907 38.7323 169.999 38.771 170.075 38.8467C170.15 38.9223 170.189 39.0163 170.189 39.1252C170.189 39.234 170.15 39.328 170.075 39.4037C169.999 39.4793 169.907 39.518 169.8 39.518H168.415H168.419ZM172.032 43.122H173.188C173.369 43.122 173.487 43.0261 173.542 42.8342C173.587 42.6941 173.622 42.4229 173.644 42.0245C173.649 41.9342 173.694 41.8678 173.775 41.8254C173.856 41.7829 173.939 41.7811 174.024 41.8217C174.142 41.8788 174.234 41.9563 174.302 42.0577C174.358 42.1426 174.387 42.233 174.387 42.327V42.3768C174.33 42.8896 174.241 43.2548 174.118 43.4742C173.961 43.7564 173.673 43.8966 173.256 43.8966H171.923C171.467 43.8966 171.161 43.8044 171.008 43.6218C170.853 43.4392 170.776 43.0851 170.776 42.5631V36.6057C170.776 36.4932 170.814 36.3973 170.894 36.318C170.973 36.2387 171.069 36.2 171.185 36.2C171.301 36.2 171.397 36.2387 171.477 36.318C171.556 36.3973 171.595 36.4932 171.595 36.6057V39.0698C171.595 39.0809 171.6 39.0901 171.611 39.0993C171.622 39.1086 171.637 39.1086 171.654 39.103C172.244 38.8208 172.76 38.5405 173.199 38.2583C173.284 38.203 173.376 38.1735 173.478 38.1735H173.546C173.675 38.1901 173.78 38.2472 173.858 38.3431C173.92 38.4169 173.95 38.4944 173.95 38.5792C173.95 38.6069 173.946 38.6327 173.941 38.6548C173.919 38.7673 173.856 38.8522 173.754 38.9075C173.181 39.2229 172.48 39.5494 171.652 39.8869C171.613 39.9035 171.593 39.9348 171.593 39.9791V42.5705C171.593 42.8066 171.619 42.9578 171.672 43.0224C171.726 43.0869 171.845 43.1201 172.032 43.1201V43.122Z" fill="#231815"/>
<path d="M178.729 38.4022C178.729 38.4464 178.751 38.4704 178.797 38.4704H179.489C179.624 38.4704 179.74 38.5184 179.839 38.6143C179.937 38.7102 179.987 38.8282 179.987 38.9684V41.0028C179.987 41.1429 179.937 41.261 179.839 41.3569C179.742 41.4528 179.624 41.5007 179.489 41.5007H178.797C178.751 41.5007 178.729 41.5229 178.729 41.569V42.0411C178.729 42.0854 178.751 42.1094 178.797 42.1094H179.911C180.007 42.1094 180.09 42.1444 180.16 42.2145C180.23 42.2846 180.265 42.3694 180.265 42.4672C180.265 42.565 180.23 42.6498 180.16 42.7199C180.09 42.79 180.007 42.825 179.911 42.825H178.797C178.751 42.825 178.729 42.8453 178.729 42.884V43.8966C178.729 43.998 178.694 44.0829 178.624 44.1548C178.554 44.2249 178.469 44.26 178.371 44.26C178.274 44.26 178.189 44.2249 178.119 44.1548C178.049 44.0847 178.013 43.998 178.013 43.8966V42.884C178.013 42.8453 177.993 42.825 177.954 42.825H176.874C176.778 42.825 176.695 42.79 176.625 42.7199C176.555 42.6498 176.52 42.565 176.52 42.4672C176.52 42.3694 176.555 42.2846 176.625 42.2145C176.695 42.1444 176.778 42.1094 176.874 42.1094H177.954C177.993 42.1094 178.013 42.0873 178.013 42.0411V41.569C178.013 41.5247 177.993 41.5007 177.954 41.5007H177.287C177.147 41.5007 177.029 41.4528 176.933 41.3569C176.837 41.261 176.789 41.1429 176.789 41.0028V38.9684C176.789 38.8282 176.837 38.7102 176.933 38.6143C177.029 38.5184 177.147 38.4704 177.287 38.4704H177.954C177.993 38.4704 178.013 38.4483 178.013 38.4022V37.9724C178.013 37.9281 177.993 37.9042 177.954 37.9042H176.968C176.872 37.9042 176.789 37.871 176.719 37.8027C176.649 37.7345 176.614 37.6533 176.614 37.5574C176.614 37.4615 176.649 37.3785 176.719 37.3084C176.789 37.2383 176.872 37.2033 176.968 37.2033H177.954C177.993 37.2033 178.013 37.183 178.013 37.1443V36.6795C178.013 36.5836 178.049 36.5006 178.119 36.4305C178.189 36.3604 178.274 36.3254 178.371 36.3254C178.469 36.3254 178.554 36.3604 178.624 36.4305C178.694 36.5006 178.729 36.5836 178.729 36.6795V37.1443C178.729 37.183 178.751 37.2033 178.797 37.2033H179.734C179.836 37.2033 179.921 37.2383 179.987 37.3084C180.055 37.3785 180.088 37.4615 180.088 37.5574C180.088 37.6533 180.055 37.7345 179.987 37.8027C179.919 37.871 179.836 37.9042 179.734 37.9042H178.797C178.751 37.9042 178.729 37.9263 178.729 37.9724V38.4022ZM177.445 39.044C177.401 39.044 177.377 39.0661 177.377 39.1122V39.6361C177.377 39.6748 177.399 39.6951 177.445 39.6951H178.028C178.067 39.6951 178.087 39.6748 178.087 39.6361V39.1122C178.087 39.068 178.067 39.044 178.028 39.044H177.445ZM177.445 40.2595C177.401 40.2595 177.377 40.2798 177.377 40.3185V40.8497C177.377 40.8939 177.399 40.9179 177.445 40.9179H178.028C178.067 40.9179 178.087 40.8958 178.087 40.8497V40.3185C178.087 40.2798 178.067 40.2595 178.028 40.2595H177.445ZM179.303 39.6951C179.347 39.6951 179.371 39.6748 179.371 39.6361V39.1122C179.371 39.068 179.349 39.044 179.303 39.044H178.713C178.674 39.044 178.653 39.0661 178.653 39.1122V39.6361C178.653 39.6748 178.674 39.6951 178.713 39.6951H179.303ZM179.303 40.9179C179.347 40.9179 179.371 40.8958 179.371 40.8497V40.3185C179.371 40.2798 179.349 40.2595 179.303 40.2595H178.713C178.674 40.2595 178.653 40.2798 178.653 40.3185V40.8497C178.653 40.8939 178.674 40.9179 178.713 40.9179H179.303ZM182.89 40.2595C182.918 40.158 182.977 40.0787 183.067 40.0234C183.128 39.9846 183.196 39.9644 183.27 39.9644C183.298 39.9644 183.325 39.968 183.355 39.9736C183.456 39.9957 183.536 40.0492 183.591 40.134C183.624 40.1968 183.643 40.2576 183.643 40.3203C183.643 40.3535 183.639 40.3886 183.633 40.4218C183.43 41.1189 183.161 41.7221 182.824 42.2274C182.796 42.2606 182.796 42.2957 182.824 42.3289C183.224 42.801 183.679 43.1754 184.19 43.4521C184.275 43.4964 184.329 43.5701 184.351 43.6716V43.7398C184.351 43.8136 184.329 43.8782 184.283 43.9335C184.203 44.0294 184.111 44.094 184.004 44.1272C183.965 44.1327 183.925 44.1364 183.886 44.1364C183.812 44.1364 183.742 44.1198 183.676 44.0866C183.174 43.7933 182.728 43.4134 182.333 42.9467C182.305 42.9135 182.276 42.9135 182.248 42.9467C181.815 43.4078 181.285 43.7989 180.662 44.1198C180.599 44.1474 180.535 44.1622 180.468 44.1622C180.43 44.1622 180.387 44.1567 180.341 44.1456C180.234 44.1179 180.144 44.0552 180.072 43.9593C180.028 43.9021 180.004 43.8413 180.004 43.773C180.004 43.7509 180.007 43.7288 180.013 43.7048C180.029 43.6089 180.083 43.5425 180.173 43.5019C180.815 43.192 181.356 42.7937 181.794 42.3031C181.822 42.2699 181.826 42.2348 181.804 42.2016C181.444 41.628 181.143 40.9419 180.9 40.1414C180.894 40.1359 180.887 40.1322 180.88 40.1285C180.87 40.1267 180.865 40.1285 180.858 40.1322C180.795 40.206 180.714 40.2484 180.612 40.2595H180.586C180.502 40.2595 180.422 40.2318 180.35 40.1746C180.339 40.1691 180.325 40.1599 180.308 40.1488C180.218 40.0806 180.173 39.992 180.173 39.8795C180.173 39.7947 180.205 39.7191 180.265 39.6508C180.553 39.3465 180.791 38.9961 180.983 38.5958C181.035 38.4944 181.11 38.4188 181.212 38.3671C181.273 38.3339 181.339 38.3173 181.405 38.3173C181.444 38.3173 181.485 38.3228 181.523 38.3339C181.625 38.3616 181.699 38.4206 181.743 38.511C181.765 38.5552 181.776 38.6032 181.776 38.6512C181.776 38.6991 181.765 38.7452 181.743 38.7913C181.518 39.2414 181.26 39.6471 180.966 40.0068C180.961 40.0178 180.961 40.0271 180.966 40.0363C180.972 40.0455 180.981 40.0492 180.992 40.0492L181.077 40.0234C181.121 40.0123 181.164 40.0068 181.204 40.0068C181.295 40.0068 181.381 40.0326 181.466 40.0824C181.584 40.1506 181.669 40.2521 181.719 40.3867C181.87 40.798 182.056 41.189 182.276 41.5598C182.281 41.5708 182.292 41.5764 182.309 41.5764C182.326 41.5764 182.337 41.5708 182.342 41.5598C182.573 41.1706 182.755 40.739 182.89 40.2595ZM184.047 37.3822C184.148 37.3822 184.235 37.4191 184.308 37.491C184.382 37.5648 184.417 37.6515 184.417 37.7529C184.417 37.8544 184.38 37.9411 184.308 38.0148C184.235 38.0886 184.148 38.1237 184.047 38.1237H180.594C180.492 38.1237 180.406 38.0868 180.332 38.0148C180.258 37.9411 180.223 37.8544 180.223 37.7529C180.223 37.6515 180.26 37.5648 180.332 37.491C180.406 37.4173 180.492 37.3822 180.594 37.3822H181.877C181.916 37.3822 181.937 37.3601 181.937 37.314V36.7145C181.937 36.602 181.975 36.508 182.055 36.4323C182.134 36.3567 182.228 36.318 182.337 36.318C182.446 36.318 182.54 36.3567 182.615 36.4323C182.691 36.508 182.73 36.602 182.73 36.7145V37.314C182.73 37.3582 182.752 37.3822 182.798 37.3822H184.047ZM182.975 38.7821C182.92 38.7083 182.901 38.629 182.925 38.5423C182.947 38.4556 182.999 38.3892 183.076 38.3431C183.137 38.3155 183.204 38.3007 183.27 38.3007C183.298 38.3007 183.329 38.3044 183.362 38.3099C183.464 38.3321 183.543 38.3856 183.598 38.4704C183.908 38.8762 184.159 39.2506 184.349 39.5936C184.382 39.6508 184.399 39.7098 184.399 39.7707C184.399 39.8094 184.393 39.85 184.382 39.8887C184.349 39.9957 184.284 40.075 184.189 40.1248C184.131 40.1525 184.076 40.1672 184.019 40.1672C183.98 40.1672 183.94 40.1617 183.901 40.1506C183.805 40.1174 183.731 40.0529 183.681 39.957C183.501 39.5973 183.264 39.2063 182.973 38.7839L182.975 38.7821Z" fill="#231815"/>
<path d="M192.614 38.4796C192.614 38.5183 192.634 38.5386 192.673 38.5386H193.424C193.575 38.5386 193.712 38.5349 193.83 38.5294H193.855C193.968 38.5294 194.066 38.5681 194.151 38.6474C194.241 38.7267 194.285 38.8245 194.285 38.9425C194.285 39.0606 194.241 39.1712 194.151 39.2542C194.066 39.3391 193.962 39.3815 193.839 39.3815H193.83C193.712 39.3759 193.579 39.3723 193.433 39.3723H192.673C192.634 39.3723 192.614 39.3944 192.614 39.4405V39.6692C192.614 40.2096 192.581 40.6762 192.516 41.0709C192.452 41.4656 192.341 41.8345 192.186 42.1813C192.031 42.528 191.819 42.8323 191.548 43.0979C191.279 43.3617 190.938 43.6051 190.526 43.8246C190.43 43.88 190.329 43.9095 190.222 43.9095C190.183 43.9095 190.146 43.9058 190.113 43.9002C189.962 43.8726 189.831 43.808 189.724 43.7066L189.707 43.6974C189.645 43.6347 189.615 43.5627 189.615 43.4779C189.615 43.4557 189.619 43.4336 189.624 43.4096C189.641 43.2971 189.704 43.216 189.811 43.1643C190.266 42.967 190.628 42.7364 190.895 42.4727C191.163 42.2089 191.367 41.853 191.511 41.4085C191.655 40.964 191.727 40.4014 191.727 39.7208V39.4423C191.727 39.3981 191.707 39.3741 191.668 39.3741H189.506C189.468 39.3741 189.447 39.3962 189.447 39.4423V40.6744L189.457 41.0636C189.457 41.1816 189.414 41.2867 189.329 41.3753C189.239 41.4656 189.13 41.5099 189.005 41.5099C188.879 41.5099 188.77 41.4656 188.68 41.3753C188.601 41.2849 188.562 41.1816 188.562 41.0636L188.571 40.6744V39.4423C188.571 39.3981 188.551 39.3741 188.512 39.3741H187.727C187.586 39.3741 187.439 39.3778 187.288 39.3833H187.278C187.155 39.3833 187.05 39.3409 186.967 39.2561C186.876 39.1712 186.832 39.0679 186.832 38.9444C186.832 38.8208 186.876 38.7157 186.967 38.6327C187.052 38.5589 187.147 38.5238 187.254 38.5238H187.288C187.444 38.5349 187.592 38.5404 187.727 38.5404H188.512C188.551 38.5404 188.571 38.5201 188.571 38.4814V37.3158C188.571 37.1922 188.61 37.0852 188.689 36.9948C188.78 36.8989 188.889 36.851 189.019 36.851C189.15 36.851 189.248 36.8989 189.331 36.9948C189.41 37.0852 189.449 37.1885 189.449 37.3065V38.4796C189.449 38.5183 189.47 38.5386 189.508 38.5386H191.67C191.709 38.5386 191.729 38.5183 191.729 38.4796V37.5334L191.72 37.2457C191.72 37.1221 191.762 37.0151 191.847 36.9247C191.937 36.8288 192.046 36.7809 192.177 36.7809C192.308 36.7809 192.413 36.8288 192.498 36.9247C192.577 37.0151 192.616 37.1184 192.616 37.2364V38.4777L192.614 38.4796Z" fill="#231815"/>
<path d="M201.68 39.2137C201.646 39.2359 201.63 39.2672 201.63 39.306V42.8767L201.637 43.4245C201.637 43.5481 201.595 43.655 201.51 43.7454C201.425 43.8469 201.318 43.8967 201.189 43.8967H201.113C200.979 43.8967 200.866 43.8469 200.776 43.7454C200.691 43.655 200.649 43.5481 200.649 43.4245L200.665 42.8767V39.863C200.665 39.8464 200.658 39.8353 200.645 39.8298C200.63 39.8242 200.617 39.8242 200.606 39.8298C199.767 40.2743 198.898 40.6395 197.998 40.9272C197.935 40.9493 197.876 40.9604 197.821 40.9604C197.747 40.9604 197.675 40.9456 197.602 40.918C197.467 40.8626 197.362 40.7723 197.29 40.6487C197.257 40.5933 197.238 40.5343 197.238 40.4716C197.238 40.4274 197.249 40.3794 197.271 40.3278C197.316 40.2152 197.399 40.1452 197.517 40.1175C198.148 39.9423 198.764 39.7265 199.365 39.4683C199.966 39.2101 200.494 38.9389 200.944 38.6586C201.687 38.1975 202.327 37.6774 202.867 37.0964C202.963 37.0005 203.078 36.947 203.214 36.9359H203.247C203.365 36.9359 203.47 36.9746 203.559 37.054C203.666 37.1499 203.719 37.2679 203.719 37.4081C203.719 37.5372 203.672 37.6478 203.576 37.7364C202.974 38.2879 202.34 38.7803 201.676 39.2137H201.68Z" fill="#231815"/>
<path d="M213.466 40.311C213.595 40.3682 213.685 40.4604 213.735 40.5895C213.757 40.6523 213.768 40.7131 213.768 40.7758C213.768 40.8441 213.754 40.9105 213.726 40.9787L213.717 41.0045C213.667 41.1226 213.578 41.2074 213.455 41.2572C213.398 41.2738 213.342 41.283 213.285 41.283C213.217 41.283 213.15 41.2664 213.082 41.2332C212.249 40.833 211.326 40.4678 210.314 40.1358C210.303 40.1303 210.29 40.1321 210.275 40.1395C210.26 40.1487 210.255 40.1598 210.255 40.1782V42.7862L210.281 43.4281C210.281 43.5461 210.242 43.6494 210.163 43.7398C210.072 43.8412 209.963 43.891 209.832 43.891H209.764C209.63 43.891 209.519 43.8412 209.436 43.7398C209.351 43.6494 209.309 43.5461 209.309 43.4281L209.334 42.7862V37.7861L209.309 37.2715C209.309 37.159 209.347 37.0575 209.427 36.9672C209.511 36.8657 209.62 36.8159 209.757 36.8159H209.825C209.954 36.8159 210.065 36.8657 210.153 36.9672C210.238 37.0575 210.281 37.1608 210.281 37.2789L210.255 37.7861V39.0698C210.255 39.114 210.275 39.1435 210.314 39.1546C211.433 39.4977 212.483 39.8831 213.462 40.311H213.466Z" fill="#231815"/>
<path d="M222.631 41.5265C222.236 41.5265 221.884 41.4509 221.572 41.2978C221.26 41.1448 220.947 40.9124 220.631 40.597C220.395 40.3609 220.178 40.1894 219.977 40.0824C219.777 39.9754 219.534 39.9219 219.246 39.9219C218.75 39.9219 218.32 40.1635 217.955 40.6486C217.881 40.7501 217.789 40.8146 217.677 40.8423C217.638 40.8589 217.597 40.8681 217.559 40.8681C217.485 40.8681 217.415 40.8478 217.348 40.8091C217.241 40.7537 217.173 40.6689 217.145 40.5564C217.134 40.5177 217.129 40.4808 217.129 40.4476C217.129 40.3738 217.151 40.3037 217.197 40.2373C217.749 39.4498 218.435 39.0551 219.257 39.0551C219.65 39.0551 220.004 39.1325 220.316 39.2874C220.628 39.4424 220.941 39.6766 221.257 39.992C221.493 40.2281 221.71 40.3996 221.911 40.5066C222.111 40.6136 222.354 40.6671 222.642 40.6671C223.136 40.6671 223.568 40.4217 223.933 39.933C224.007 39.8371 224.099 39.7725 224.211 39.7393C224.25 39.7283 224.291 39.7227 224.329 39.7227C224.403 39.7227 224.473 39.7393 224.54 39.7725C224.647 39.8352 224.715 39.9219 224.743 40.0344C224.754 40.0676 224.759 40.1045 224.759 40.1432C224.759 40.217 224.737 40.2871 224.691 40.3535C224.139 41.1355 223.453 41.5265 222.631 41.5265Z" fill="#231815"/>
</g>
<path d="M82.1863 17.458C82.1831 17.4795 82.1849 17.5014 82.1917 17.5221C82.1986 17.5427 82.2101 17.5615 82.2255 17.5768C82.2408 17.5922 82.2596 17.6037 82.2802 17.6105C82.3008 17.6173 82.3228 17.6192 82.3443 17.616H84.7113C84.9873 17.616 85.3026 17.603 85.6573 17.577H85.7573C86.0201 17.577 86.2735 17.6755 86.4673 17.853C86.5817 17.9452 86.6732 18.0626 86.7348 18.196C86.7964 18.3294 86.8263 18.4751 86.8223 18.622V18.977C86.824 19.1293 86.7933 19.2803 86.7321 19.4198C86.6709 19.5593 86.5806 19.6842 86.4673 19.786C86.3676 19.8885 86.2478 19.9694 86.1155 20.0238C85.9833 20.0781 85.8413 20.1047 85.6983 20.102H85.6593C85.3897 20.0905 85.12 20.0839 84.8503 20.082H82.4053C82.3003 20.082 82.2543 20.128 82.2673 20.22C82.3859 26.0047 82.4453 28.9886 82.4453 29.172C82.462 29.4422 82.4195 29.7127 82.3207 29.9648C82.2219 30.2168 82.0692 30.4442 81.8733 30.631C81.3978 31.0235 80.7878 31.2148 80.1733 31.164C79.3733 31.164 78.5909 31.1444 77.8263 31.105C77.5008 31.0992 77.1901 30.9685 76.9583 30.74C76.7234 30.5139 76.5827 30.2075 76.5643 29.882L76.5253 29.582C76.5152 29.4426 76.537 29.3027 76.589 29.173C76.641 29.0432 76.7218 28.9269 76.8253 28.833C76.909 28.745 77.0099 28.6751 77.1217 28.6276C77.2335 28.5801 77.3538 28.5561 77.4753 28.557C77.5154 28.5571 77.5552 28.5635 77.5933 28.576C78.1586 28.6286 78.6713 28.655 79.1313 28.655C79.2294 28.6646 79.3283 28.6515 79.4205 28.6169C79.5128 28.5822 79.5958 28.5268 79.6633 28.455C79.7857 28.2611 79.8412 28.0324 79.8213 27.804C79.8213 25.622 79.8149 23.8553 79.8023 22.504C79.8029 22.4923 79.7991 22.4808 79.7918 22.4718C79.7844 22.4627 79.7738 22.4567 79.7623 22.455C79.7524 22.4514 79.7418 22.4504 79.7314 22.4521C79.7211 22.4539 79.7114 22.4583 79.7033 22.465C78.7633 23.6464 77.71 24.7328 76.5583 25.709C75.3139 26.7924 73.9775 27.7655 72.5643 28.617C72.3525 28.7324 72.1154 28.7936 71.8743 28.795C71.7886 28.7945 71.703 28.7879 71.6183 28.775C71.2934 28.7247 70.9986 28.5563 70.7903 28.302L70.4753 27.947C70.3276 27.8008 70.2426 27.6028 70.2383 27.395C70.2381 27.3279 70.2444 27.2609 70.2573 27.195C70.2784 27.059 70.3327 26.9302 70.4153 26.8202C70.498 26.7101 70.6065 26.6222 70.7313 26.564C72.3385 25.7074 73.8546 24.6898 75.2563 23.527C76.4681 22.5513 77.5574 21.4325 78.5003 20.195C78.5067 20.1828 78.51 20.1693 78.51 20.1555C78.51 20.1417 78.5067 20.1282 78.5003 20.116C78.4924 20.1025 78.4807 20.0916 78.4666 20.0846C78.4526 20.0777 78.4368 20.0751 78.4213 20.077H73.0573C72.742 20.077 72.3673 20.0836 71.9333 20.097H71.8743C71.5863 20.0974 71.3098 19.9838 71.1053 19.781C70.9964 19.681 70.9101 19.5589 70.8524 19.4228C70.7946 19.2867 70.7666 19.1398 70.7703 18.992V18.637C70.7655 18.492 70.7931 18.3477 70.851 18.2147C70.909 18.0817 70.9959 17.9633 71.1053 17.868C71.3058 17.6729 71.5755 17.565 71.8553 17.568H71.9143C72.3216 17.5946 72.6829 17.6076 72.9983 17.607H79.5453C79.6373 17.607 79.6833 17.555 79.6833 17.449C79.67 16.9757 79.6503 16.5423 79.6243 16.149C79.6109 15.8336 79.5913 15.538 79.5653 15.262C79.5532 15.23 79.5464 15.1962 79.5453 15.162C79.545 14.8991 79.6435 14.6457 79.8213 14.452C79.9182 14.3446 80.0369 14.2591 80.1696 14.2013C80.3022 14.1436 80.4456 14.1148 80.5903 14.117H81.1233C81.2709 14.1135 81.4176 14.1416 81.5535 14.1994C81.6894 14.2572 81.8114 14.3433 81.9113 14.452C82.1025 14.6547 82.2098 14.9223 82.2113 15.201L82.1713 16.147L82.1863 17.458Z" fill="#362C2F"/>
<path d="M93.4954 30.829C93.372 30.8543 93.2464 30.8674 93.1204 30.868C92.8379 30.8732 92.5592 30.8028 92.313 30.6641C92.0669 30.5253 91.8622 30.3233 91.7204 30.079L91.2664 29.389C91.1897 29.2645 91.1488 29.1212 91.1484 28.975C91.1497 28.8652 91.1768 28.7574 91.2274 28.66C91.2747 28.5409 91.3524 28.4362 91.4528 28.3566C91.5531 28.2769 91.6727 28.225 91.7994 28.206C94.1211 27.7797 96.3507 26.9523 98.3884 25.761C99.8296 24.8973 101.155 23.8536 102.332 22.655C103.443 21.5457 104.405 20.2957 105.191 18.937C105.243 18.8352 105.322 18.7498 105.42 18.6906C105.517 18.6314 105.629 18.6007 105.743 18.602H105.762C105.872 18.5982 105.981 18.6258 106.075 18.6816C106.169 18.7375 106.246 18.8191 106.295 18.917L106.749 19.726C106.92 20.0266 107.008 20.3666 107.005 20.712C107.009 21.0762 106.905 21.4333 106.705 21.738C105.84 23.0194 104.833 24.2001 103.705 25.258C102.525 26.3802 101.229 27.3751 99.8405 28.226C97.8743 29.4196 95.7333 30.2979 93.4954 30.829ZM92.2134 17.657C92.0943 17.5739 91.9953 17.4652 91.9237 17.3389C91.8521 17.2126 91.8096 17.0719 91.7994 16.927V16.809C91.7974 16.5517 91.8965 16.3039 92.0754 16.119L92.3754 15.804C92.5966 15.562 92.8978 15.4079 93.2234 15.37H93.3814C93.6522 15.373 93.9148 15.4631 94.1304 15.627C95.3147 16.4949 96.4536 17.4231 97.5424 18.408C97.6618 18.51 97.7572 18.6372 97.8218 18.7803C97.8865 18.9234 97.9188 19.079 97.9164 19.236C97.919 19.3866 97.8905 19.5361 97.8329 19.6753C97.7753 19.8145 97.6897 19.9403 97.5814 20.045L97.1474 20.499C97.0396 20.6085 96.9105 20.6946 96.7681 20.7523C96.6257 20.8099 96.473 20.8377 96.3195 20.834C96.0191 20.84 95.7285 20.7267 95.5114 20.519C94.4561 19.5183 93.3568 18.565 92.2134 17.657Z" fill="#362C2F"/>
<path d="M123.923 19.7451C124.034 19.7328 124.146 19.7264 124.258 19.7261C124.815 19.701 125.369 19.8308 125.858 20.1011C126.102 20.2523 126.279 20.4925 126.351 20.7711C126.389 20.9059 126.408 21.0451 126.41 21.1851C126.408 21.3394 126.381 21.4924 126.331 21.6381C125.751 23.6475 124.75 25.5099 123.393 27.1011C121.721 28.9297 119.62 30.3125 117.28 31.1241C117.1 31.176 116.914 31.2026 116.727 31.2031C116.574 31.2021 116.422 31.1823 116.274 31.1441C115.934 31.0538 115.631 30.861 115.406 30.5921L114.933 30.0591C114.82 29.9425 114.756 29.7872 114.755 29.6251C114.755 29.5445 114.768 29.4645 114.794 29.3881C114.826 29.2722 114.888 29.167 114.975 29.0837C115.062 29.0004 115.169 28.9422 115.287 28.9151C117.503 28.3683 119.532 27.2378 121.163 25.6411C122.096 24.7005 122.792 23.5516 123.194 22.2891C123.2 22.2747 123.202 22.2589 123.201 22.2432C123.199 22.2276 123.193 22.2128 123.184 22.2001C123.174 22.1848 123.161 22.1721 123.146 22.1635C123.13 22.1548 123.112 22.1506 123.095 22.1511H113.495C113.127 22.1511 112.732 22.1641 112.312 22.1901H112.253C112.113 22.1915 111.974 22.1642 111.846 22.11C111.717 22.0558 111.6 21.9759 111.504 21.8751C111.39 21.778 111.299 21.6568 111.238 21.5204C111.176 21.384 111.146 21.2357 111.149 21.0861V20.7861C111.147 20.6397 111.178 20.4947 111.24 20.3618C111.301 20.2288 111.391 20.1111 111.504 20.0171C111.698 19.8244 111.96 19.7166 112.234 19.7171H112.313C112.747 19.7304 113.141 19.7368 113.496 19.7361H123.923V19.7451ZM114.162 17.3591H114.142C113.847 17.3625 113.563 17.2488 113.353 17.0431C113.239 16.9461 113.148 16.8249 113.086 16.6885C113.025 16.552 112.995 16.4037 112.998 16.2541V15.9821C112.995 15.8326 113.025 15.6842 113.087 15.5478C113.148 15.4114 113.239 15.2903 113.353 15.1931C113.559 14.9955 113.836 14.8877 114.122 14.8931H114.161C114.45 14.9065 114.765 14.9128 115.107 14.9121H122.876C123.232 14.9121 123.576 14.9061 123.902 14.8931H123.941C124.226 14.8878 124.503 14.9956 124.71 15.1931C124.823 15.2903 124.914 15.4114 124.976 15.5478C125.037 15.6842 125.067 15.8326 125.065 15.9821V16.2581C125.068 16.4077 125.037 16.5561 124.976 16.6925C124.914 16.829 124.823 16.9501 124.71 17.0471C124.499 17.2528 124.215 17.3664 123.921 17.3631H114.163L114.162 17.3591Z" fill="#362C2F"/>
<path d="M141.7 20.199C141.661 20.2248 141.63 20.2602 141.609 20.3017C141.588 20.3433 141.579 20.3897 141.581 20.436V28.536L141.62 30.094C141.621 30.369 141.523 30.6351 141.344 30.844C141.252 30.9518 141.137 31.0378 141.008 31.0957C140.878 31.1537 140.737 31.1821 140.596 31.179H139.727C139.583 31.1811 139.439 31.1523 139.307 31.0945C139.174 31.0368 139.055 30.9513 138.958 30.844C138.767 30.6411 138.66 30.373 138.659 30.094L138.698 28.536V22.068C138.699 22.0511 138.696 22.0343 138.689 22.0188C138.682 22.0033 138.672 21.9896 138.659 21.979C138.648 21.9697 138.635 21.9639 138.621 21.9621C138.606 21.9603 138.592 21.9627 138.58 21.969C136.745 22.9019 134.839 23.6867 132.88 24.316C132.741 24.3675 132.594 24.3942 132.445 24.395C132.263 24.3951 132.082 24.3611 131.913 24.295C131.599 24.1654 131.336 23.9373 131.164 23.645L130.888 23.191C130.811 23.0665 130.77 22.9233 130.77 22.777C130.77 22.6544 130.797 22.5333 130.849 22.422C130.9 22.2982 130.981 22.1888 131.083 22.103C131.186 22.0171 131.309 21.9574 131.44 21.929C134.273 21.1987 136.984 20.0558 139.484 18.537C141.153 17.5216 142.678 16.288 144.021 14.869C144.12 14.7545 144.24 14.6607 144.376 14.5931C144.511 14.5255 144.659 14.4854 144.81 14.475H144.888C145.158 14.4725 145.418 14.571 145.619 14.751L146.073 15.145C146.187 15.2503 146.278 15.3786 146.339 15.5215C146.4 15.6644 146.43 15.8186 146.427 15.974C146.43 16.1186 146.401 16.2621 146.343 16.3947C146.285 16.5273 146.2 16.646 146.093 16.743C144.732 18.0213 143.262 19.1778 141.7 20.199Z" fill="#362C2F"/>
<path d="M154.073 30.829C153.95 30.8543 153.824 30.8674 153.699 30.868C153.483 30.8671 153.269 30.8271 153.068 30.75C152.752 30.6055 152.485 30.3728 152.299 30.08L151.845 29.39C151.768 29.2654 151.727 29.1222 151.727 28.976C151.728 28.8663 151.755 28.7584 151.806 28.661C151.853 28.5419 151.93 28.4372 152.03 28.3575C152.13 28.2779 152.25 28.226 152.377 28.207C154.697 27.7803 156.926 26.953 158.963 25.762C160.404 24.8983 161.729 23.8546 162.907 22.656C164.018 21.5469 164.979 20.2969 165.766 18.938C165.817 18.8362 165.896 18.751 165.994 18.6918C166.091 18.6326 166.203 18.6019 166.318 18.603H166.338C166.447 18.5992 166.556 18.6268 166.65 18.6826C166.745 18.7384 166.821 18.8201 166.871 18.918L167.324 19.727C167.494 20.0274 167.583 20.3675 167.581 20.713C167.585 21.0772 167.48 21.4344 167.281 21.739C166.415 23.0205 165.409 24.2012 164.281 25.259C163.1 26.381 161.804 27.3758 160.416 28.227C158.45 29.42 156.31 30.2979 154.073 30.829ZM152.792 17.657C152.673 17.5739 152.574 17.4652 152.502 17.3389C152.43 17.2126 152.388 17.0718 152.378 16.927V16.809C152.376 16.5516 152.475 16.3038 152.655 16.119L152.955 15.804C153.176 15.562 153.477 15.4079 153.803 15.37H153.961C154.232 15.3729 154.495 15.463 154.711 15.627C155.895 16.4949 157.033 17.4231 158.122 18.408C158.241 18.51 158.337 18.637 158.402 18.7801C158.466 18.9232 158.499 19.0789 158.497 19.236C158.499 19.3866 158.471 19.5361 158.413 19.6753C158.355 19.8145 158.27 19.9403 158.162 20.045L157.728 20.499C157.509 20.7104 157.217 20.8301 156.913 20.8336C156.609 20.8372 156.314 20.7242 156.091 20.518C155.034 19.518 153.934 18.565 152.792 17.657Z" fill="#362C2F"/>
<path d="M183.987 17.6951C184.105 17.6824 184.223 17.676 184.342 17.6761C184.853 17.6669 185.358 17.7747 185.821 17.9911C186.066 18.1182 186.266 18.318 186.393 18.5631C186.497 18.7784 186.551 19.0142 186.551 19.2531V19.4901C186.351 24.6434 185.951 27.9364 185.351 29.3691C185.164 29.8509 184.829 30.2614 184.395 30.5421C183.893 30.8204 183.323 30.9537 182.749 30.9271C182.105 30.9271 181.375 30.9007 180.56 30.8481C180.236 30.8241 179.931 30.6843 179.702 30.4541C179.465 30.2302 179.315 29.9299 179.278 29.6061L179.218 29.2121V29.0931C179.217 28.9773 179.241 28.8628 179.289 28.7573C179.337 28.6518 179.407 28.5579 179.494 28.4821C179.663 28.3171 179.889 28.2248 180.125 28.2251H180.243C180.799 28.2988 181.358 28.3381 181.919 28.3431C182.173 28.3581 182.427 28.2998 182.649 28.1751C182.841 28.0376 182.991 27.8502 183.083 27.6331C183.424 26.63 183.625 25.5849 183.683 24.5271C183.834 23.0218 183.916 21.6121 183.929 20.2981C183.932 20.2766 183.93 20.2546 183.924 20.234C183.917 20.2134 183.905 20.1946 183.89 20.1793C183.874 20.1639 183.856 20.1524 183.835 20.1456C183.814 20.1388 183.793 20.1369 183.771 20.1401H179.532C179.427 20.1401 179.367 20.1861 179.354 20.2781C179.101 22.353 178.498 24.3701 177.57 26.2431C176.694 27.8871 175.489 29.3334 174.03 30.4921C173.78 30.6974 173.466 30.8088 173.143 30.8071H173.104C172.771 30.8105 172.448 30.6913 172.197 30.4721L171.664 30.0381C171.569 29.9673 171.493 29.875 171.44 29.7687C171.388 29.6625 171.362 29.5454 171.364 29.4271C171.358 29.2834 171.39 29.1406 171.455 29.0126C171.521 28.8847 171.619 28.776 171.739 28.6971C172.335 28.2923 172.89 27.8297 173.396 27.3161C174.304 26.4398 175.042 25.4039 175.575 24.2601C176.143 22.9939 176.525 21.6524 176.709 20.2771C176.722 20.1851 176.682 20.1391 176.59 20.1391H174.066C173.435 20.1391 172.935 20.1454 172.566 20.1581H172.527C172.381 20.1598 172.236 20.1328 172.101 20.0786C171.966 20.0244 171.842 19.944 171.738 19.8421C171.629 19.7422 171.543 19.6202 171.485 19.4843C171.428 19.3484 171.4 19.2017 171.403 19.0541V18.7381C171.4 18.5905 171.428 18.4438 171.485 18.3079C171.543 18.172 171.629 18.05 171.738 17.9501C171.938 17.755 172.208 17.6471 172.487 17.6501H172.566C173.131 17.6894 173.631 17.7091 174.066 17.7091H176.807C176.827 17.711 176.846 17.7089 176.865 17.7029C176.884 17.6969 176.901 17.6872 176.916 17.6742C176.931 17.6613 176.943 17.6455 176.951 17.6277C176.96 17.61 176.964 17.5907 176.965 17.5711C176.978 16.9011 176.985 16.3621 176.985 15.9541L176.965 15.1851C176.96 14.9097 177.058 14.6424 177.241 14.4361C177.338 14.3287 177.457 14.2432 177.589 14.1854C177.722 14.1276 177.865 14.0989 178.01 14.1011H178.661C178.806 14.0989 178.949 14.1278 179.082 14.1855C179.214 14.2433 179.333 14.3287 179.43 14.4361C179.625 14.6364 179.733 14.9056 179.73 15.1851L179.71 15.8951C179.683 16.6284 179.657 17.1871 179.631 17.5711C179.628 17.5898 179.63 17.6089 179.636 17.6269C179.642 17.6448 179.652 17.6612 179.666 17.6746C179.679 17.6879 179.695 17.698 179.713 17.704C179.731 17.71 179.75 17.7118 179.769 17.7091H183.417C183.6 17.7131 183.79 17.7085 183.987 17.6951Z" fill="#362C2F"/>
<path d="M192.407 21.797C192.277 21.7267 192.163 21.6285 192.074 21.5092C191.985 21.39 191.924 21.2526 191.894 21.107C191.868 21.017 191.855 20.9237 191.855 20.83C191.857 20.6265 191.919 20.428 192.032 20.259L192.21 19.982C192.382 19.7147 192.651 19.5241 192.959 19.45C193.062 19.4237 193.168 19.4103 193.274 19.41C193.482 19.4126 193.685 19.4669 193.866 19.568C194.733 20.0807 195.614 20.626 196.508 21.204C196.642 21.2839 196.755 21.3929 196.841 21.5227C196.926 21.6526 196.981 21.8 197.001 21.954C197.027 22.0304 197.04 22.1104 197.04 22.191C197.039 22.4167 196.969 22.6367 196.84 22.822L196.623 23.137C196.542 23.2651 196.436 23.3749 196.31 23.4598C196.184 23.5446 196.043 23.6026 195.893 23.63C195.815 23.6434 195.736 23.6502 195.656 23.65C195.431 23.6488 195.211 23.579 195.025 23.45C194.108 22.848 193.235 22.297 192.407 21.797ZM194.872 31.124C194.552 31.225 194.206 31.1966 193.906 31.045C193.589 30.9109 193.325 30.6752 193.156 30.375L192.801 29.744C192.727 29.626 192.686 29.4897 192.683 29.35C192.685 29.2275 192.711 29.1064 192.762 28.995C192.819 28.8732 192.904 28.7667 193.011 28.6844C193.117 28.6021 193.241 28.5465 193.373 28.522C195.373 28.1238 197.301 27.4255 199.092 26.451C200.573 25.623 201.955 24.6307 203.213 23.493C204.406 22.4271 205.459 21.2149 206.348 19.885C206.409 19.7839 206.496 19.7012 206.6 19.6457C206.704 19.5902 206.822 19.564 206.939 19.57C207.057 19.5635 207.174 19.5918 207.276 19.6514C207.378 19.711 207.46 19.7992 207.511 19.905L207.925 20.615C208.082 20.8989 208.163 21.2179 208.162 21.542C208.168 21.9178 208.05 22.2851 207.826 22.587C205.815 25.1552 203.316 27.2997 200.471 28.897C198.71 29.8799 196.828 30.6286 194.872 31.124ZM195.503 17.224C195.247 17.0625 195.064 16.808 194.991 16.514C194.965 16.424 194.952 16.3307 194.952 16.237C194.958 16.0244 195.028 15.8184 195.152 15.646L195.33 15.37C195.415 15.2394 195.525 15.1269 195.654 15.0388C195.782 14.9508 195.927 14.889 196.079 14.857C196.177 14.8298 196.278 14.8166 196.379 14.818C196.59 14.8178 196.796 14.8793 196.971 14.995C197.787 15.4817 198.667 16.034 199.613 16.652C199.742 16.7332 199.851 16.8399 199.936 16.9655C200.021 17.0911 200.079 17.2329 200.106 17.382C200.12 17.4604 200.126 17.5396 200.126 17.619C200.125 17.8451 200.055 18.0654 199.926 18.251L199.726 18.551C199.552 18.8078 199.282 18.9849 198.977 19.044C198.899 19.0573 198.82 19.0641 198.74 19.064C198.515 19.0626 198.295 18.9929 198.109 18.864C197.2 18.2687 196.331 17.7213 195.503 17.222V17.224ZM203.549 16.258C203.472 16.1337 203.431 15.9904 203.43 15.844C203.429 15.7698 203.443 15.6962 203.469 15.627C203.495 15.5183 203.546 15.417 203.618 15.3314C203.69 15.2458 203.781 15.1783 203.883 15.134C204.022 15.0825 204.169 15.0557 204.317 15.055C204.424 15.055 204.53 15.0681 204.633 15.094C204.878 15.1696 205.088 15.3308 205.224 15.548C205.54 16.0607 205.842 16.5733 206.131 17.086C206.206 17.2044 206.247 17.341 206.249 17.481C206.251 17.584 206.231 17.6862 206.19 17.781C206.151 17.8977 206.087 18.0043 206.002 18.093C205.916 18.1817 205.813 18.2504 205.697 18.294C205.579 18.3439 205.451 18.3707 205.322 18.373C205.202 18.3724 205.082 18.3521 204.967 18.313C204.846 18.2692 204.734 18.2013 204.639 18.1133C204.544 18.0254 204.468 17.9191 204.415 17.801C204.127 17.2317 203.838 16.7167 203.549 16.256V16.258ZM206.329 15.292C206.239 15.1654 206.191 15.0136 206.191 14.858C206.193 14.784 206.206 14.7107 206.231 14.641C206.26 14.5357 206.311 14.4382 206.383 14.3562C206.455 14.2742 206.545 14.2098 206.645 14.168C206.791 14.1153 206.945 14.0886 207.099 14.089C207.212 14.0897 207.325 14.1028 207.434 14.128C207.687 14.1993 207.904 14.3609 208.045 14.582C208.334 15.0027 208.636 15.4823 208.952 16.021C209.029 16.1455 209.07 16.2888 209.07 16.435C209.068 16.5235 209.048 16.6105 209.011 16.691C208.98 16.8057 208.923 16.9117 208.845 17.0007C208.766 17.0897 208.668 17.1592 208.557 17.204C208.428 17.267 208.287 17.3012 208.143 17.304C208.029 17.3026 207.916 17.2827 207.808 17.245C207.57 17.1634 207.373 16.9938 207.255 16.771C206.967 16.257 206.659 15.7633 206.332 15.29L206.329 15.292Z" fill="#362C2F"/>
<path d="M222.91 15.841C222.941 15.6934 223.003 15.5539 223.091 15.4316C223.179 15.3093 223.292 15.2069 223.423 15.131C223.592 15.017 223.791 14.9552 223.995 14.953C224.088 14.9533 224.181 14.9664 224.271 14.992L225.178 15.229C225.316 15.2583 225.445 15.3201 225.555 15.4093C225.665 15.4985 225.752 15.6126 225.809 15.742C225.883 15.8817 225.923 16.0369 225.927 16.195C225.926 16.3305 225.899 16.4646 225.848 16.59L225.621 17.211L225.414 17.773C224.542 20.4286 223.257 22.9306 221.608 25.187C220.727 26.2791 219.74 27.2801 218.66 28.175C217.547 29.1176 216.325 29.9234 215.021 30.575C214.812 30.6767 214.583 30.7306 214.351 30.733C214.245 30.7327 214.139 30.7197 214.036 30.694C213.699 30.6304 213.389 30.465 213.149 30.22L212.479 29.51C212.411 29.447 212.356 29.3707 212.319 29.2859C212.282 29.2012 212.262 29.1096 212.262 29.017C212.261 28.9498 212.268 28.8828 212.282 28.817C212.305 28.6914 212.36 28.574 212.444 28.4771C212.527 28.3801 212.634 28.3069 212.755 28.265C214.058 27.7197 215.289 27.0179 216.423 26.175C217.502 25.3817 218.482 24.4614 219.341 23.434C220.197 22.3723 220.91 21.2021 221.461 19.954C222.064 18.6285 222.549 17.2521 222.91 15.841Z" fill="#362C2F"/>
<path d="M248.15 22.014C248.146 22.3213 248.022 22.6147 247.804 22.8319C247.587 23.0491 247.294 23.1729 246.986 23.1771H241.563C241.55 23.1776 241.536 23.1815 241.524 23.1882C241.512 23.195 241.502 23.2046 241.494 23.2161C241.485 23.2267 241.479 23.2399 241.477 23.254C241.475 23.2681 241.478 23.2824 241.484 23.295C242.048 24.7716 242.95 26.0956 244.117 27.1606C245.285 28.2257 246.686 29.0023 248.208 29.428C248.326 29.4614 248.433 29.5242 248.519 29.6105C248.605 29.6968 248.668 29.8036 248.701 29.921C248.726 30.0045 248.739 30.091 248.74 30.178C248.738 30.3421 248.682 30.501 248.582 30.631C248.475 30.7772 248.375 30.9287 248.282 31.085C248.097 31.3647 247.828 31.5786 247.513 31.696C247.357 31.7594 247.189 31.7933 247.02 31.796C246.866 31.7965 246.713 31.7697 246.567 31.717C245.113 31.2225 243.775 30.4376 242.633 29.41C241.521 28.3688 240.608 27.1324 239.941 25.762C239.936 25.7504 239.928 25.7406 239.918 25.7336C239.907 25.7267 239.895 25.723 239.882 25.723C239.87 25.7229 239.857 25.7266 239.847 25.7335C239.836 25.7405 239.828 25.7504 239.823 25.762C238.653 28.4574 236.326 30.4424 232.842 31.717C232.703 31.7685 232.557 31.7953 232.408 31.796C232.246 31.7944 232.085 31.7604 231.935 31.696C231.621 31.5785 231.352 31.3646 231.166 31.085L231.008 30.848C230.907 30.7034 230.852 30.5315 230.85 30.355C230.851 30.269 230.857 30.1831 230.869 30.098C230.903 29.9735 230.968 29.8596 231.058 29.7666C231.148 29.6736 231.259 29.6047 231.382 29.566C234.972 28.2907 237.147 26.2071 237.909 23.3151C237.917 23.2984 237.919 23.2799 237.915 23.2621C237.912 23.2442 237.903 23.2278 237.89 23.215C237.877 23.2021 237.862 23.1919 237.844 23.1852C237.827 23.1785 237.809 23.1754 237.79 23.176H232.584C232.277 23.1719 231.984 23.0481 231.766 22.8309C231.549 22.6137 231.425 22.3203 231.42 22.0131V21.8751C231.417 21.7205 231.446 21.567 231.506 21.4244C231.565 21.2818 231.654 21.1533 231.766 21.0471C231.873 20.9393 232.001 20.8541 232.141 20.7965C232.282 20.739 232.432 20.7102 232.584 20.712H238.144C238.236 20.712 238.282 20.6601 238.282 20.5541V17.162C238.282 17.062 238.236 17.004 238.144 17.004H231.952C231.8 17.0058 231.65 16.9771 231.509 16.9196C231.369 16.862 231.241 16.7768 231.134 16.6691C231.022 16.5625 230.934 16.4338 230.874 16.291C230.815 16.1483 230.786 15.9946 230.789 15.84V15.6821C230.793 15.3749 230.917 15.0815 231.135 14.8643C231.352 14.647 231.645 14.5232 231.952 14.519H247.539C247.846 14.5232 248.14 14.647 248.357 14.8643C248.574 15.0815 248.698 15.3749 248.702 15.6821V15.84C248.706 15.9946 248.677 16.1482 248.617 16.291C248.558 16.4337 248.469 16.5625 248.357 16.6691C248.25 16.7768 248.123 16.862 247.982 16.9196C247.842 16.9771 247.691 17.0058 247.539 17.004H240.992C240.971 17.001 240.949 17.0031 240.928 17.0099C240.908 17.0168 240.889 17.0284 240.874 17.0437C240.859 17.059 240.847 17.0777 240.84 17.0982C240.833 17.1187 240.831 17.1406 240.834 17.162V20.5541C240.831 20.5756 240.833 20.5975 240.84 20.6181C240.847 20.6387 240.858 20.6575 240.873 20.6729C240.889 20.6882 240.908 20.6998 240.928 20.7066C240.949 20.7134 240.971 20.7152 240.992 20.712H246.987C247.139 20.7103 247.29 20.739 247.43 20.7966C247.571 20.8541 247.698 20.9393 247.805 21.0471C247.918 21.1533 248.006 21.2819 248.066 21.4245C248.125 21.5671 248.155 21.7206 248.151 21.8751L248.15 22.014Z" fill="#362C2F"/>
<path d="M253.09 15.1551C253.088 15.0017 253.116 14.8494 253.174 14.7072C253.231 14.565 253.317 14.4358 253.425 14.3273C253.534 14.2188 253.663 14.1332 253.805 14.0756C253.947 14.0181 254.1 13.9897 254.253 13.9921H268.89C269.042 13.9903 269.192 14.0191 269.333 14.0766C269.473 14.1342 269.601 14.2193 269.708 14.327C269.82 14.4334 269.909 14.562 269.968 14.7046C270.027 14.8472 270.056 15.0006 270.053 15.1551V30.8911C270.056 31.0455 270.027 31.1989 269.968 31.3415C269.909 31.4841 269.82 31.6127 269.708 31.7191C269.601 31.8268 269.473 31.912 269.333 31.9696C269.192 32.0271 269.042 32.0559 268.89 32.0541H268.377C268.144 32.0485 267.921 31.9533 267.756 31.7881C267.591 31.623 267.496 31.4006 267.49 31.1671C267.493 31.1509 267.493 31.1341 267.488 31.1182C267.483 31.1024 267.474 31.088 267.463 31.0763C267.451 31.0646 267.437 31.056 267.421 31.0513C267.405 31.0465 267.388 31.0458 267.372 31.0491H255.654C255.638 31.0458 255.621 31.0465 255.605 31.0513C255.589 31.056 255.575 31.0646 255.563 31.0763C255.552 31.088 255.543 31.1024 255.538 31.1182C255.533 31.1341 255.533 31.1509 255.536 31.1671C255.537 31.2833 255.513 31.3983 255.467 31.5051C255.422 31.612 255.355 31.7083 255.27 31.788C255.187 31.8739 255.087 31.9418 254.977 31.9876C254.867 32.0333 254.748 32.056 254.629 32.0541H254.254C254.101 32.0565 253.948 32.0281 253.806 31.9705C253.664 31.9129 253.535 31.8273 253.426 31.7188C253.318 31.6103 253.232 31.4812 253.175 31.339C253.117 31.1968 253.089 31.0445 253.091 30.8911L253.09 15.1551ZM255.535 28.6831C255.532 28.7018 255.534 28.721 255.54 28.7389C255.546 28.7569 255.556 28.7732 255.57 28.7866C255.583 28.8 255.599 28.8101 255.617 28.8161C255.635 28.8221 255.654 28.8237 255.673 28.8211H267.347C267.366 28.8237 267.385 28.8221 267.403 28.8161C267.421 28.8101 267.437 28.8 267.451 28.7866C267.464 28.7732 267.474 28.7569 267.48 28.7389C267.486 28.721 267.488 28.7018 267.485 28.6831V16.3351C267.485 16.2301 267.438 16.1771 267.347 16.1771H255.674C255.582 16.1771 255.536 16.2291 255.536 16.3351L255.535 28.6831ZM265.474 25.6271C265.468 25.6333 265.463 25.6413 265.461 25.65C265.46 25.6588 265.461 25.6678 265.464 25.676C265.47 25.695 265.48 25.7061 265.494 25.7061H265.809C265.936 25.7048 266.062 25.7295 266.179 25.7787C266.296 25.8279 266.401 25.9005 266.489 25.9921C266.672 26.1751 266.775 26.4233 266.775 26.6821C266.775 26.9409 266.672 27.1891 266.489 27.3721C266.401 27.4637 266.296 27.5363 266.179 27.5855C266.062 27.6347 265.936 27.6594 265.809 27.6581H257.29C257.163 27.6596 257.037 27.635 256.92 27.5858C256.803 27.5366 256.697 27.4638 256.609 27.3721C256.426 27.1889 256.324 26.9408 256.324 26.6821C256.324 26.4234 256.426 26.1752 256.609 25.9921C256.697 25.9003 256.803 25.8276 256.92 25.7784C257.037 25.7292 257.163 25.7046 257.29 25.7061H260.228C260.249 25.7091 260.271 25.707 260.292 25.7002C260.312 25.6933 260.331 25.6817 260.346 25.6664C260.362 25.6511 260.373 25.6324 260.38 25.6119C260.387 25.5914 260.389 25.5695 260.386 25.5481V23.4551C260.386 23.3631 260.333 23.3171 260.228 23.3171H258.058C257.925 23.3184 257.794 23.2924 257.672 23.2408C257.55 23.1892 257.439 23.113 257.348 23.0171C257.158 22.8255 257.052 22.567 257.052 22.2976C257.052 22.0281 257.158 21.7696 257.348 21.5781C257.439 21.4821 257.55 21.4059 257.672 21.3543C257.794 21.3027 257.925 21.2768 258.058 21.2781H260.228C260.328 21.2781 260.386 21.2321 260.386 21.1401V19.5401C260.389 19.5186 260.387 19.4968 260.38 19.4762C260.373 19.4557 260.362 19.437 260.346 19.4217C260.331 19.4064 260.312 19.3948 260.292 19.388C260.271 19.3811 260.249 19.3791 260.228 19.3821H257.59C257.313 19.3821 257.047 19.272 256.851 19.076C256.655 18.88 256.545 18.6142 256.545 18.3371C256.545 18.0599 256.655 17.7941 256.851 17.5982C257.047 17.4022 257.313 17.2921 257.59 17.2921H265.419C265.696 17.2921 265.962 17.4022 266.158 17.5982C266.354 17.7941 266.464 18.0599 266.464 18.3371C266.464 18.6142 266.354 18.88 266.158 19.076C265.962 19.272 265.696 19.3821 265.419 19.3821H262.757C262.736 19.3791 262.714 19.3811 262.693 19.388C262.673 19.3948 262.654 19.4064 262.639 19.4217C262.623 19.437 262.612 19.4557 262.605 19.4762C262.598 19.4968 262.596 19.5186 262.599 19.5401V21.1401C262.599 21.2321 262.652 21.2781 262.757 21.2781H265.005C265.272 21.2792 265.527 21.3854 265.715 21.5739C265.904 21.7623 266.01 22.0176 266.011 22.2841V22.3231C266.012 22.4514 265.987 22.5785 265.938 22.697C265.889 22.8155 265.816 22.9229 265.725 23.0131C265.636 23.1093 265.527 23.1857 265.407 23.2374C265.286 23.2891 265.156 23.3149 265.025 23.3131C265.012 23.3131 264.999 23.3231 264.986 23.3431C264.973 23.3631 264.972 23.3791 264.986 23.3921C265.262 23.6814 265.525 23.9704 265.774 24.2591C265.901 24.4155 265.972 24.6105 265.974 24.8121C265.973 24.8792 265.967 24.946 265.955 25.012C265.926 25.1433 265.867 25.2663 265.784 25.372C265.701 25.4778 265.596 25.5635 265.475 25.6231L265.474 25.6271ZM262.753 23.3201C262.648 23.3201 262.595 23.3661 262.595 23.4581V25.5481C262.592 25.5695 262.594 25.5915 262.6 25.6121C262.607 25.6328 262.619 25.6515 262.634 25.6669C262.65 25.6823 262.668 25.6938 262.689 25.7006C262.71 25.7074 262.732 25.7093 262.753 25.7061H264.468C264.485 25.7076 264.502 25.7035 264.516 25.6944C264.53 25.6854 264.541 25.6719 264.547 25.6561C264.553 25.6421 264.556 25.6269 264.556 25.6116C264.556 25.5963 264.553 25.5811 264.547 25.5671C264.402 25.3571 264.218 25.1137 263.994 24.8371C263.856 24.6709 263.779 24.4622 263.777 24.2461C263.777 24.1789 263.783 24.112 263.796 24.0461C263.824 23.91 263.883 23.7822 263.968 23.6728C264.054 23.5633 264.164 23.4751 264.289 23.4151L264.348 23.3761C264.354 23.3716 264.358 23.3654 264.36 23.3583C264.361 23.3512 264.361 23.3438 264.358 23.3371C264.355 23.3313 264.351 23.3264 264.346 23.323C264.341 23.3196 264.334 23.3179 264.328 23.3181L262.753 23.3201Z" fill="#362C2F"/>
<path d="M61.32 5.90296C61.3208 5.50686 61.2226 5.11685 61.0343 4.76838C60.8459 4.41992 60.5735 4.12406 60.2417 3.90772C59.9099 3.69139 59.5293 3.56148 59.1344 3.52973C58.7396 3.49799 58.3431 3.56542 57.981 3.72596C57.973 3.72596 57.831 3.79396 57.741 3.84596L57.471 4.00196L52.708 6.75196L46.408 10.3909L44.363 11.571L40.463 13.824L31.687 8.75697L30.665 8.16694L29.643 8.75697L20.866 13.824L16.966 11.571L14.921 10.3909L8.621 6.75196L3.858 4.00196L3.58801 3.84596C3.50936 3.80266 3.42893 3.76263 3.34698 3.72596C2.98441 3.5653 2.58749 3.4977 2.19217 3.52931C1.79685 3.56091 1.41566 3.69076 1.08322 3.90699C0.75078 4.12322 0.477583 4.41903 0.288422 4.76759C0.0992603 5.11614 0.000128831 5.50639 0 5.90296V8.64594H0.00698853C0.0420486 9.35401 0.245192 10.0436 0.599579 10.6576C0.953966 11.2716 1.44944 11.7924 2.04501 12.1769V12.183L2.23499 12.293L3.16599 12.8309C2.78451 13.1589 2.46129 13.5492 2.20999 13.985C2.14899 14.085 2.09501 14.197 2.04401 14.304C1.72599 14.97 1.57922 15.7049 1.617 16.442C1.64716 17.0291 1.79223 17.6047 2.04401 18.136C2.431 18.9552 3.05902 19.6365 3.84399 20.0889L4.776 20.626C4.28995 21.0441 3.89958 21.5619 3.63144 22.1442C3.3633 22.7266 3.22364 23.3599 3.22198 24.001C3.22198 24.08 3.22199 24.159 3.22699 24.238C3.26116 24.8779 3.43163 25.5032 3.72699 26.072C3.75832 26.1326 3.79166 26.1926 3.827 26.252C4.21838 26.9307 4.78205 27.494 5.461 27.885L14.917 33.3439L16.962 34.525L29.641 41.845L30.663 42.4349L31.685 41.845L44.364 34.525L46.409 33.3439L55.865 27.885C56.5439 27.494 57.1076 26.9307 57.499 26.252C57.533 26.1926 57.5663 26.1326 57.599 26.072C57.8948 25.5034 58.0653 24.878 58.099 24.238C58.099 24.159 58.105 24.08 58.105 24.001C58.1031 23.3599 57.9633 22.7267 57.6952 22.1444C57.4271 21.5621 57.0368 21.0442 56.551 20.626L57.483 20.0889C58.2679 19.6365 58.8959 18.9552 59.283 18.136C59.5346 17.6046 59.6797 17.0291 59.71 16.442C59.7475 15.7049 59.6007 14.9701 59.283 14.304C59.232 14.1954 59.1767 14.089 59.117 13.985C58.8653 13.5491 58.5418 13.1589 58.16 12.8309L59.091 12.293L59.281 12.183V12.1769C59.8766 11.7924 60.3721 11.2716 60.7264 10.6576C61.0808 10.0436 61.2839 9.35401 61.319 8.64594H61.326V5.90296H61.32ZM14.914 30.989L9.73099 27.996L6.71701 26.256L6.48099 26.119C5.92566 25.796 5.52075 25.2664 5.35474 24.6458C5.18872 24.0252 5.2751 23.3641 5.595 22.807C5.65276 22.7093 5.71724 22.6157 5.78799 22.527C6.04571 22.1972 6.38483 21.94 6.772 21.781L6.92599 21.8699L8.97 23.051L10.095 23.7L12.087 24.85L14.524 26.257L14.917 26.484L14.914 30.989ZM14.914 24.123L11.834 22.345L11.012 21.8699L8.96701 20.69L8.11899 20.2L7.07199 19.6L4.87201 18.329C4.47964 18.1029 4.15853 17.7713 3.94519 17.3718C3.73185 16.9724 3.63482 16.5211 3.66513 16.0692C3.69544 15.6174 3.85189 15.1831 4.11667 14.8157C4.38145 14.4484 4.74394 14.1626 5.16299 13.991L8.48599 15.9089L10.478 17.059L12.878 18.4429L14.922 19.623L14.914 24.123ZM14.914 17.256L10.223 14.548L6.508 12.403L5.461 11.803L3.26099 10.532C2.89301 10.3187 2.5876 10.0124 2.3754 9.64381C2.16319 9.27521 2.05167 8.85727 2.052 8.43195C2.052 8.37595 2.05201 8.31999 2.05801 8.26399H2.04901V5.90998C2.04901 5.82087 2.08439 5.73538 2.1474 5.67237C2.21041 5.60936 2.2959 5.57398 2.38501 5.57398C2.44574 5.57433 2.50521 5.59128 2.55701 5.62299L2.70999 5.70997L3.552 6.19599L4.59299 6.79597L6.87399 8.11299L8.866 9.26295L14.918 12.757L16.963 13.937L18.82 15.01L16.963 16.082L14.914 17.256ZM29.637 39.4899L16.958 32.17V20.7969L26.413 26.256L29.636 28.117L29.637 39.4899ZM44.36 32.17L31.681 39.4899V28.117L34.904 26.256L44.359 20.7969L44.36 32.17ZM31.681 25.757L30.815 26.257L30.658 26.347L30.501 26.257L29.635 25.757L16.956 18.437L20.856 16.184L22.901 15.0029L29.633 11.116L30.655 10.5259L31.677 11.116L38.409 15.0029L40.453 16.184L44.353 18.437L31.681 25.757ZM55.818 25.057C55.609 25.5044 55.2676 25.8769 54.84 26.124L54.604 26.261L51.59 28.001L46.407 30.994V26.489L46.8 26.262L49.237 24.855L51.228 23.705L52.353 23.056L54.4 21.868L54.554 21.7789C54.9411 21.9381 55.2803 22.1952 55.538 22.525C55.6087 22.6137 55.6732 22.7073 55.731 22.8049C55.9261 23.1445 56.036 23.5264 56.0513 23.9177C56.0667 24.309 55.9869 24.6982 55.819 25.052L55.818 25.057ZM56.451 18.327L54.251 19.598L53.203 20.1979L52.355 20.6879L50.31 21.868L49.487 22.343L46.408 24.121V19.6149L48.452 18.4349L50.852 17.051L52.844 15.9009L56.167 13.983C56.586 14.1546 56.9486 14.4404 57.2133 14.8077C57.4781 15.1751 57.6345 15.6094 57.6649 16.0612C57.6952 16.5131 57.5981 16.9644 57.3848 17.3638C57.1715 17.7633 56.8504 18.0949 56.458 18.321L56.451 18.327ZM59.274 8.261H59.265C59.265 8.317 59.271 8.37296 59.271 8.42896C59.2713 8.85428 59.1598 9.27222 58.9476 9.64082C58.7354 10.0094 58.43 10.3157 58.062 10.5289L55.862 11.7999L54.815 12.4L51.1 14.548L46.409 17.256L44.364 16.075L42.507 15.0029L44.364 13.9299L46.409 12.7499L52.461 9.25599L54.453 8.10597L56.734 6.78895L57.775 6.18897L58.617 5.70295L58.77 5.61598C58.8217 5.58417 58.8812 5.56721 58.942 5.56696C59.0311 5.56696 59.1166 5.60234 59.1796 5.66535C59.2426 5.72837 59.278 5.81385 59.278 5.90296L59.274 8.261Z" fill="#362C2F"/>
<path d="M25.9162 28.111V28.458L25.2232 29.432C24.1527 30.963 23.5886 32.7909 23.6102 34.659C23.1456 34.4822 22.6933 34.2748 22.2562 34.038C21.7042 33.718 21.6182 33.438 21.6182 33.138C21.6182 31.676 23.6752 29.814 24.5842 28.987L24.7472 28.843L22.8092 27.721C21.5092 26.969 21.2392 26.888 21.0222 27.131L20.7952 27.378L20.4492 27.178V24.947L25.9162 28.111Z" fill="#B7160F"/>
<path d="M40.9768 30.018C40.9768 31.502 39.9048 33.03 37.9888 34.136L37.8888 34.192L37.7478 35.226L37.1198 35.5891L37.2608 34.512C36.6408 34.8245 35.9815 35.0519 35.3008 35.188V33.218L35.6688 33.005C35.7098 33.1813 35.7883 33.3468 35.899 33.4901C36.0097 33.6333 36.15 33.751 36.3102 33.8352C36.4705 33.9194 36.647 33.968 36.8278 33.9778C37.0086 33.9876 37.1893 33.9584 37.3578 33.892L37.7158 31.239L37.4158 31.294C36.1918 31.535 35.3698 31.469 35.3698 30.213C35.3698 28.741 36.4958 27.181 38.2928 26.143L38.3798 26.093L38.5198 25.059L39.1478 24.697L39.0068 25.774C39.5057 25.5466 40.0342 25.391 40.5768 25.312V27.066L40.2088 27.278C40.1094 27.0164 39.9283 26.7938 39.6922 26.6433C39.4562 26.4929 39.178 26.4227 38.8988 26.4431L38.5628 28.9531L38.8338 28.906C40.3488 28.616 40.9768 28.882 40.9768 30.018ZM38.0098 29.057L38.3238 26.645L38.2688 26.676C37.9388 26.8517 37.658 27.1072 37.4519 27.4191C37.2458 27.7311 37.121 28.0896 37.0888 28.462C37.0898 28.917 37.3278 29.136 38.0098 29.057ZM39.2548 31.748C39.2548 31.261 38.9738 31.056 38.2698 31.137L37.9348 33.648C38.2948 33.4653 38.6039 33.196 38.8343 32.8644C39.0647 32.5328 39.2092 32.1492 39.2548 31.748Z" fill="#B7160F"/>
<path d="M36.2929 17.6849C36.2066 17.1919 36.0132 16.7239 35.7262 16.3138C35.4392 15.9038 35.0656 15.5618 34.632 15.312L30.6599 13.0189L26.688 15.312C25.9242 15.7538 25.3602 16.4732 25.1134 17.3204C24.8666 18.1676 24.956 19.0773 25.363 19.8603C25.77 20.6432 26.4632 21.2391 27.2984 21.5238C28.1336 21.8085 29.0465 21.7602 29.847 21.3889C29.8837 21.7608 29.8343 22.1362 29.7027 22.486C29.5711 22.8357 29.3608 23.1505 29.088 23.4059H32.2339C31.9611 23.1505 31.7508 22.8357 31.6192 22.486C31.4876 22.1362 31.4382 21.7608 31.4749 21.3889C32.0429 21.6533 32.6725 21.7569 33.2953 21.6885C33.918 21.62 34.51 21.3821 35.007 21.0006C35.5039 20.6191 35.8868 20.1087 36.1139 19.5248C36.3409 18.941 36.4036 18.306 36.295 17.689L36.2929 17.6849Z" fill="#B7160F"/>
<path d="M30.6635 2.04401C33.6369 2.02425 36.6073 2.24088 39.5464 2.69196C40.3244 2.82196 40.9634 2.95697 41.4854 3.08698C40.9634 3.21698 40.3244 3.35096 39.5464 3.48096C33.656 4.34509 27.6709 4.34509 21.7804 3.48096C21.1293 3.37439 20.4825 3.24298 19.8414 3.08698C20.3634 2.95697 21.0024 2.82196 21.7804 2.69196C24.7196 2.24085 27.69 2.02422 30.6635 2.04401ZM30.6635 0C22.5085 0 15.8984 1.38198 15.8984 3.08698C15.8984 4.79198 22.5085 6.17395 30.6635 6.17395C38.8185 6.17395 45.4284 4.79198 45.4284 3.08698C45.4284 1.38198 38.8185 0 30.6635 0Z" fill="#FCA200"/>
<path d="M30.6602 51.813C42.6747 51.813 52.4142 50.4309 52.4142 48.726C52.4142 47.0211 42.6747 45.639 30.6602 45.639C18.6458 45.639 8.90625 47.0211 8.90625 48.726C8.90625 50.4309 18.6458 51.813 30.6602 51.813Z" fill="#362C2F"/>
</g>
<defs>
<clipPath id="clip0_2054_134">
<rect width="270.047" height="51.813" fill="white"/>
</clipPath>
<clipPath id="clip1_2054_134">
<rect width="109" height="9" fill="white" transform="translate(116 35.6)"/>
</clipPath>
</defs>
</svg>
